# xmcd
#
# Track frame offsets:
#	150
#	16503
#	40164
#
# Disc length: 722 seconds
#
# Revision: 0
# Processed by: cddbd v1.5.2PL0 Copyright (c) Steve Scherf et al.
# Submitted via: audiograbber 1.83.01
#
DISCID=1302d003
DTITLE=Pascal Geiser - Blues On My Tail
DYEAR=2013
DGENRE=Blues
TTITLE0=First Time I Felt The Blues
TTITLE1=Sad Stranger
TTITLE2=Blues On My Tail
EXTD=
EXTT0=
EXTT1=
EXTT2=
PLAYORDER=
